<svg xmlns="http://www.w3.org/2000/svg" viewBox="0 0 120 120" width="120" height="120" role="img" aria-label="Sri Sathya Sai District CSR Cell emblem">
  <defs>
    <linearGradient id="csrLogoGrad" x1="0%" y1="0%" x2="100%" y2="100%">
      <stop offset="0%" stop-color="#06A3DA"/>
      <stop offset="100%" stop-color="#34AD54"/>
    </linearGradient>
  </defs>
  <circle cx="60" cy="60" r="58" fill="url(#csrLogoGrad)" stroke="#FF9900" stroke-width="3"/>
  <circle cx="60" cy="60" r="47" fill="none" stroke="#FFFFFF" stroke-width="1.5" opacity="0.55"/>
  <path d="M60 34c9 0 16.5 6 19 14.5c-1.5-1-3.5-1.5-5.5-1.5c-7 0-12.5 5.5-12.5 12.5c0 3 1 5.7 2.7 7.9L60 82L55.3 67.4C57 65.2 58 62.5 58 59.5c0-7-5.5-12.5-12.5-12.5c-2 0-4 .5-5.5 1.5C42.5 40 50 34 59 34z" fill="#FFFFFF"/>
  <text x="60" y="94" text-anchor="middle" font-family="'Bai Jamjuree', Arial, sans-serif" font-size="16" font-weight="700" fill="#FFFFFF" letter-spacing="1">CSR</text>
  <text x="60" y="16" text-anchor="middle" font-family="Arial, sans-serif" font-size="7" font-weight="600" fill="#FFFFFF" letter-spacing="1.5">SRI SATHYA SAI</text>
</svg>
